# Blender v2.82 (sub 7) OBJ File: 'recipiente blender.blend'
# www.blender.org
mtllib recipiente 2.mtl
o Cylinder
v 3.460473 1.008191 -0.000000
v 3.460446 -1.356801 -0.000000
v 3.387850 1.008766 0.673885
v 3.387850 -1.356565 0.673885
v 3.191285 1.008766 1.321873
v 3.191285 -1.356565 1.321873
v 2.872081 1.008766 1.919063
v 2.872081 -1.356565 1.919063
v 2.442504 1.008766 2.442504
v 2.442504 -1.356565 2.442504
v 1.919063 1.008766 2.872081
v 1.919063 -1.356565 2.872081
v 1.321873 1.008766 3.191285
v 1.321873 -1.356565 3.191285
v 0.673884 1.008766 3.387850
v 0.673884 -1.356565 3.387850
v -0.000001 1.008766 3.454222
v -0.000001 -1.356565 3.454222
v -0.673887 1.008766 3.387850
v -0.673887 -1.356565 3.387850
v -1.321875 1.008766 3.191284
v -1.321875 -1.356565 3.191284
v -1.919065 1.008766 2.872080
v -1.919065 -1.356565 2.872080
v -2.442505 1.008766 2.442502
v -2.442505 -1.356565 2.442502
v -2.872082 1.008766 1.919061
v -2.872082 -1.356565 1.919061
v -3.191286 1.008766 1.321871
v -3.191286 -1.356565 1.321871
v -3.387851 1.008766 0.673882
v -3.387851 -1.356565 0.673882
v -3.460473 1.008191 -0.000003
v -3.460446 -1.356801 -0.000003
v 3.460473 1.008191 -0.000000
v 3.387850 1.008766 0.673885
v 3.191285 1.008766 1.321873
v 2.872081 1.008766 1.919063
v 2.442504 1.008766 2.442504
v 1.919063 1.008766 2.872081
v 1.321873 1.008766 3.191285
v 0.673884 1.008766 3.387850
v -0.000001 1.008766 3.454222
v -0.673887 1.008766 3.387850
v -1.321875 1.008766 3.191284
v -1.919065 1.008766 2.872080
v -2.442505 1.008766 2.442502
v -2.872082 1.008766 1.919061
v -3.191286 1.008766 1.321871
v -3.387851 1.008766 0.673882
v -3.460473 1.008191 -0.000003
v 3.428361 0.942388 -0.000000
v 3.229457 0.965254 0.633665
v 3.000818 0.965788 1.242979
v 2.700665 0.965788 1.804526
v 2.296726 0.965788 2.296726
v 1.804526 0.965788 2.700665
v 1.242979 0.965788 3.000818
v 0.633665 0.965788 3.185651
v -0.000001 0.965788 3.248062
v -0.633667 0.965788 3.185651
v -1.242981 0.965788 3.000817
v -1.804528 0.965788 2.700664
v -2.296728 0.965788 2.296725
v -2.700666 0.965788 1.804525
v -3.000819 0.965788 1.242977
v -3.229458 0.965254 0.633663
v -3.428362 0.942388 -0.000003
v 3.436671 -1.323941 -0.000000
v 3.228513 -1.297201 0.633665
v 3.000818 -1.291527 1.242979
v 2.700665 -1.291527 1.804526
v 2.296726 -1.291527 2.296726
v 1.804526 -1.291527 2.700665
v 1.242979 -1.291527 3.000818
v 0.633665 -1.291527 3.185651
v -0.000001 -1.291527 3.248062
v -0.633667 -1.291527 3.185651
v -1.242981 -1.291527 3.000817
v -1.804528 -1.291527 2.700664
v -2.296728 -1.291527 2.296725
v -2.700666 -1.291527 1.804525
v -3.000819 -1.291527 1.242977
v -3.228515 -1.297201 0.633663
v -3.436671 -1.323941 -0.000003
v -3.465299 1.007132 -0.078282
v -3.465299 -1.348614 -0.078282
v -3.465299 1.007132 0.078282
v -3.465299 -1.348614 0.078282
v 3.465299 1.007132 -0.078282
v 3.465299 -1.348614 -0.078282
v 3.465299 1.007132 0.078282
v 3.465299 -1.348614 0.078282
vt 0.718750 1.000000
vt 0.687500 1.000000
vt 0.656250 1.000000
vt 0.625000 1.000000
vt 0.593750 1.000000
vt 0.562500 1.000000
vt 0.531250 1.000000
vt 0.500000 1.000000
vt 0.468750 1.000000
vt 0.437500 1.000000
vt 0.406250 1.000000
vt 0.375000 1.000000
vt 0.343750 1.000000
vt 0.312500 1.000000
vt 0.281250 1.000000
vt 0.250000 1.000000
vt 0.524324 0.250000
vt 0.528660 0.205973
vt 0.541503 0.163638
vt 0.562357 0.124621
vt 0.590423 0.090423
vt 0.624621 0.062357
vt 0.663637 0.041503
vt 0.705973 0.028660
vt 0.750000 0.024324
vt 0.794027 0.028660
vt 0.836363 0.041503
vt 0.875379 0.062357
vt 0.909577 0.090423
vt 0.937643 0.124621
vt 0.958497 0.163638
vt 0.971340 0.205973
vt 0.975676 0.250000
vt 0.750000 1.000000
vt 0.750000 0.500000
vt 0.718750 0.500000
vt 0.687500 0.500000
vt 0.656250 0.500000
vt 0.625000 0.500000
vt 0.593750 0.500000
vt 0.562500 0.500000
vt 0.531250 0.500000
vt 0.500000 0.500000
vt 0.468750 0.500000
vt 0.437500 0.500000
vt 0.406250 0.500000
vt 0.375000 0.500000
vt 0.343750 0.500000
vt 0.312500 0.500000
vt 0.281250 0.500000
vt 0.250000 0.500000
vt 0.971340 0.205973
vt 0.985389 0.203178
vt 0.990000 0.250000
vt 0.975676 0.250000
vt 0.958497 0.163638
vt 0.971731 0.158156
vt 0.937643 0.124621
vt 0.949553 0.116663
vt 0.909577 0.090423
vt 0.919706 0.080294
vt 0.875379 0.062357
vt 0.883337 0.050447
vt 0.836363 0.041503
vt 0.841844 0.028269
vt 0.794027 0.028660
vt 0.796822 0.014612
vt 0.750000 0.024324
vt 0.750000 0.010000
vt 0.705973 0.028660
vt 0.703178 0.014612
vt 0.663637 0.041503
vt 0.658156 0.028269
vt 0.624621 0.062357
vt 0.616663 0.050447
vt 0.590423 0.090423
vt 0.580294 0.080294
vt 0.562357 0.124621
vt 0.550447 0.116663
vt 0.541503 0.163638
vt 0.528269 0.158156
vt 0.528660 0.205973
vt 0.514611 0.203179
vt 0.524324 0.250000
vt 0.510000 0.250000
vt 0.375000 0.000000
vt 0.375000 0.250000
vt 0.625000 0.250000
vt 0.625000 0.000000
vt 0.375000 0.500000
vt 0.625000 0.500000
vt 0.375000 0.750000
vt 0.625000 0.750000
vt 0.375000 1.000000
vt 0.625000 1.000000
vt 0.125000 0.500000
vt 0.125000 0.750000
vt 0.875000 0.750000
vt 0.875000 0.500000
vt 0.000000 0.000000
vt 0.000000 0.000000
vt 0.000000 0.000000
vt 0.000000 0.000000
vt 0.000000 0.000000
vt 0.000000 0.000000
vt 0.000000 0.000000
vt 0.000000 0.000000
vt 0.000000 0.000000
vt 0.000000 0.000000
vt 0.000000 0.000000
vt 0.000000 0.000000
vt 0.000000 0.000000
vt 0.000000 0.000000
vt 0.000000 0.000000
vt 0.000000 0.000000
vt 0.000000 0.000000
vn 0.0000 -0.9765 -0.2154
vn 0.9942 -0.0000 0.1071
vn 0.9569 0.0000 0.2903
vn 0.8819 0.0000 0.4714
vn 0.7730 0.0000 0.6344
vn 0.6344 0.0000 0.7730
vn 0.4714 0.0000 0.8819
vn 0.2903 0.0000 0.9569
vn 0.0980 0.0000 0.9952
vn -0.0980 0.0000 0.9952
vn -0.2903 0.0000 0.9569
vn -0.4714 0.0000 0.8819
vn -0.6344 0.0000 0.7730
vn -0.7730 0.0000 0.6344
vn -0.8819 0.0000 0.4714
vn -0.9569 0.0000 0.2903
vn -0.9942 -0.0000 0.1071
vn -0.4761 0.8719 -0.1145
vn -0.2163 0.9736 -0.0735
vn -0.1808 0.9788 -0.0966
vn -0.1585 0.9788 -0.1301
vn -0.1301 0.9788 -0.1585
vn -0.0967 0.9788 -0.1808
vn -0.0595 0.9788 -0.1962
vn -0.0201 0.9788 -0.2040
vn 0.0201 0.9788 -0.2040
vn 0.0595 0.9788 -0.1962
vn 0.0967 0.9788 -0.1808
vn 0.1301 0.9788 -0.1585
vn 0.1585 0.9788 -0.1301
vn 0.1808 0.9788 -0.0966
vn 0.2163 0.9736 -0.0735
vn 0.4761 0.8719 -0.1145
vn 0.2903 0.0000 -0.9569
vn 0.4714 0.0000 -0.8819
vn 0.6344 0.0000 -0.7730
vn 0.7730 0.0000 -0.6344
vn 0.8819 0.0000 -0.4714
vn -0.9521 -0.0015 -0.3058
vn 0.9365 0.0002 -0.3507
vn -0.9365 0.0002 -0.3507
vn 0.9521 -0.0015 -0.3058
vn -0.8819 0.0000 -0.4714
vn -0.7730 0.0000 -0.6344
vn -0.6344 0.0000 -0.7730
vn -0.4714 0.0000 -0.8819
vn -0.2903 0.0000 -0.9569
vn -0.0980 0.0000 -0.9952
vn 0.0980 0.0000 -0.9952
vn 1.0000 0.0000 0.0000
vn 0.0000 0.0000 -1.0000
vn -1.0000 0.0000 0.0000
vn 0.0000 0.0000 1.0000
vn 0.0000 -1.0000 0.0000
vn 0.0000 1.0000 0.0000
vn 0.0000 -1.0000 -0.0030
usemtl None
s off
f 4/1/1 6/2/1 8/3/1 10/4/1 12/5/1 14/6/1 16/7/1 18/8/1 20/9/1 22/10/1 24/11/1 26/12/1 28/13/1 30/14/1 32/15/1 34/16/1 85/17/1 84/18/1 83/19/1 82/20/1 81/21/1 80/22/1 79/23/1 78/24/1 77/25/1 76/26/1 75/27/1 74/28/1 73/29/1 72/30/1 71/31/1 70/32/1 69/33/1 2/34/1
f 1/35/2 3/36/2 4/1/2 2/34/2
f 3/36/3 5/37/3 6/2/3 4/1/3
f 5/37/4 7/38/4 8/3/4 6/2/4
f 7/38/5 9/39/5 10/4/5 8/3/5
f 9/39/6 11/40/6 12/5/6 10/4/6
f 11/40/7 13/41/7 14/6/7 12/5/7
f 13/41/8 15/42/8 16/7/8 14/6/8
f 15/42/9 17/43/9 18/8/9 16/7/9
f 17/43/10 19/44/10 20/9/10 18/8/10
f 19/44/11 21/45/11 22/10/11 20/9/11
f 21/45/12 23/46/12 24/11/12 22/10/12
f 23/46/13 25/47/13 26/12/13 24/11/13
f 25/47/14 27/48/14 28/13/14 26/12/14
f 27/48/15 29/49/15 30/14/15 28/13/15
f 29/49/16 31/50/16 32/15/16 30/14/16
f 31/50/17 33/51/17 34/16/17 32/15/17
f 53/52/18 36/53/18 35/54/18 52/55/18
f 54/56/19 37/57/19 36/53/19 53/52/19
f 55/58/20 38/59/20 37/57/20 54/56/20
f 56/60/21 39/61/21 38/59/21 55/58/21
f 57/62/22 40/63/22 39/61/22 56/60/22
f 58/64/23 41/65/23 40/63/23 57/62/23
f 59/66/24 42/67/24 41/65/24 58/64/24
f 60/68/25 43/69/25 42/67/25 59/66/25
f 61/70/26 44/71/26 43/69/26 60/68/26
f 62/72/27 45/73/27 44/71/27 61/70/27
f 63/74/28 46/75/28 45/73/28 62/72/28
f 64/76/29 47/77/29 46/75/29 63/74/29
f 65/78/30 48/79/30 47/77/30 64/76/30
f 66/80/31 49/81/31 48/79/31 65/78/31
f 67/82/32 50/83/32 49/81/32 66/80/32
f 68/84/33 51/85/33 50/83/33 67/82/33
f 61/70/34 78/24/34 79/23/34 62/72/34
f 62/72/35 79/23/35 80/22/35 63/74/35
f 63/74/36 80/22/36 81/21/36 64/76/36
f 64/76/37 81/21/37 82/20/37 65/78/37
f 65/78/38 82/20/38 83/19/38 66/80/38
f 52/55/39 69/33/39 70/32/39 53/52/39
f 66/80/40 83/19/40 84/18/40 67/82/40
f 53/52/41 70/32/41 71/31/41 54/56/41
f 67/82/42 84/18/42 85/17/42 68/84/42
f 54/56/43 71/31/43 72/30/43 55/58/43
f 55/58/44 72/30/44 73/29/44 56/60/44
f 56/60/45 73/29/45 74/28/45 57/62/45
f 57/62/46 74/28/46 75/27/46 58/64/46
f 58/64/47 75/27/47 76/26/47 59/66/47
f 59/66/48 76/26/48 77/25/48 60/68/48
f 60/68/49 77/25/49 78/24/49 61/70/49
f 86/86/50 88/87/50 89/88/50 87/89/50
f 88/87/51 92/90/51 93/91/51 89/88/51
f 92/90/52 90/92/52 91/93/52 93/91/52
f 90/92/53 86/94/53 87/95/53 91/93/53
f 88/96/54 86/97/54 90/92/54 92/90/54
f 93/91/55 91/93/55 87/98/55 89/99/55
f 8/100/56 10/101/56 12/102/56 14/103/56 16/104/56 18/105/56 20/106/56 22/107/56 24/108/56 26/109/56 28/110/56 30/111/56 32/112/56 89/113/56 93/114/56 4/115/56 6/116/56
l 2 34
